# xmcd
#
# Track frame offsets: 
#        150
#        11792
#        23643
#        35692
#        48873
#        60629
#        70864
#        84793
#        98079
#        111588
#        123439
#        139470
#        163264
#        171744
#        183393
#        192210
#        203870
#        217944
#        228570
#        240507
#        254467
#        267550
#        280417
#        291136
#        304945
#        315670
#        328729
#        339790
#        356082
#        367361
#        382277
#
# Disc length: 5177 seconds
#
# Revision: 1
# Processed by: cddbd v1.5.2PL0 Copyright (c) Steve Scherf et al.
# Submitted via: ExactAudioCopyFreeDBPlugin 1.0
#
DISCID=f114371f
DTITLE=Various Artist - The Sun Country Box:  Country Music Recorded 
DTITLE=by Sam Phillips, 1950-1959 [Bear Family]
DYEAR=2013
DGENRE=Country
TTITLE0=Earl Peterson - In the Dark
TTITLE1=Earl Peterson - Boogie Blues
TTITLE2=Earl Peterson - Nothing to Lose But My Heart
TTITLE3=Earl Peterson - I'm Leaving My Heart Up to You
TTITLE4=Howard Seratt - Make Room in the Lifeboat for Me
TTITLE5=Howard Seratt - Jesus Means All to Me
TTITLE6=Howard Seratt - Troublesome Waters
TTITLE7=Howard Seratt - I Must Be Saved
TTITLE8=Doug Poindexter - Now She Cares No More for Me
TTITLE9=Doug Poindexter - My Kind of Carryin' On
TTITLE10=Scotty Moore and Elvis Presley - How Do You Think I'll Feel
TTITLE11=Carl Perkins - Instrumental Medley
TTITLE12=Carl Perkins - Honky Tonk Babe
TTITLE13=Carl Perkins - Gone Gone Gone
TTITLE14=Carl Perkins - Dixie Bop
TTITLE15=Carl Perkins - Sure to Fall
TTITLE16=Carl Perkins - Tennessee
TTITLE17=Carl Perkins - Everybody's Tryin' to Be My Baby
TTITLE18=Carl Perkins - Forever Yours
TTITLE19=Carl Perkins - The Way You're Living (Is Breakin' My Heart)
TTITLE20=Carl Perkins - Try My Heart Out
TTITLE21=Malcolm Yelvington - Drinkin' Wine Spo Dee O Dee
TTITLE22=Malcolm Yelvington - Just Rollin' Along
TTITLE23=Bill Taylor - Lonely Sweetheart
TTITLE24=Bill Taylor and Smokey Joe - Split Personality
TTITLE25=Smokey Joe Baugh - Hula Bop
TTITLE26=Smokey Joe Baugh - She's a Woman
TTITLE27=Smokey Joe Baugh - The Midnight Ride of Paul Revere
TTITLE28=Smokey Joe Baugh - Listen to Me
TTITLE29=Smokey Joe Baugh - The Signifying Monkey
TTITLE30=Stan Kesler - We're Getting Closer to Being Apart
EXTD=
EXTT0=
EXTT1=
EXTT2=
EXTT3=
EXTT4=
EXTT5=
EXTT6=
EXTT7=
EXTT8=
EXTT9=
EXTT10=
EXTT11=
EXTT12=
EXTT13=
EXTT14=
EXTT15=
EXTT16=
EXTT17=
EXTT18=
EXTT19=
EXTT20=
EXTT21=
EXTT22=
EXTT23=
EXTT24=
EXTT25=
EXTT26=
EXTT27=
EXTT28=
EXTT29=
EXTT30=
PLAYORDER=
